<?xml version="1.0" encoding="UTF-8"?>
<svg width="279px" height="200px" viewBox="0 0 279 200" version="1.1" xmlns="http://www.w3.org/2000/svg" xmlns:xlink="http://www.w3.org/1999/xlink">
    <title>clarify</title>
    <g id="页面-1" stroke="none" stroke-width="1" fill="none" fill-rule="evenodd">
        <g id="clarify" transform="translate(-0, 0.0054)">
            <path d="M44.867217,0.0054376148 C130.715579,1.00591567 200,70.9091172 200,156.994562 L199.986321,155.127494 C199.384888,180.009127 179.026368,199.994562 154,199.994562 L46,199.994562 C20.5949015,199.994562 0,179.399661 0,153.994562 L0,45.9945624 C0,21.0975659 19.7793434,0.820282524 44.4815926,0.0191499894 Z" fill="#00D492"></path>
            <path d="M123.867217,0.0054376148 C209.715579,1.00591567 279,70.9091172 279,156.994562 L278.986321,155.127494 C278.384888,180.009127 258.026368,199.994562 233,199.994562 L125,199.994562 C99.5949015,199.994562 79,179.399661 79,153.994562 L79,45.9945624 C79,21.0975659 98.7793434,0.820282524 123.481593,0.0191499894 Z" id="clarify-right" fill-opacity="0.6" fill="#00F6C9" transform="translate(179, 100) rotate(-90) translate(-179, -100)"></path>
            <path d="M199.979267,154.416906 L199.984438,155.157125 L199.962366,155.872459 C198.977251,180.406837 178.776104,199.994562 154,199.994562 L124.372438,199.994125 L124.249053,199.994081 C99.6939678,199.603921 79.8122712,179.973634 79.01915,155.518407 L79.0054376,155.132783 C79.5830823,105.566626 103.129768,61.5221348 139.498462,33.1463428 C175.69419,61.3871018 199.186123,105.143863 199.979267,154.416906 Z" id="形状结合" fill="#00F692"></path>
        </g>
    </g>
</svg>
